<svg xmlns="http://www.w3.org/2000/svg" xmlns:xlink="http://www.w3.org/1999/xlink" xmlns:svgjs="http://svgjs.com/svgjs" version="1.1" width="512" height="512" x="0" y="0" viewBox="0 0 481.47 481.47" style="enable-background:new 0 0 512 512" xml:space="preserve" class=""><g>
<g xmlns="http://www.w3.org/2000/svg">
	<g>
		<path d="M240.723,0C107.984,0,0,107.99,0,240.735S107.984,481.47,240.723,481.47c132.758,0,240.747-107.99,240.747-240.735    S373.458,0,240.723,0z M240.723,457.556c-119.55,0-216.809-97.271-216.809-216.821c0-119.55,97.259-216.82,216.809-216.82    c119.562,0,216.832,97.27,216.832,216.82C457.555,360.285,360.286,457.556,240.723,457.556z" fill="#ffffff" data-original="#000000" style="" class=""/>
		<path d="M240.723,125.243c63.115,0,114.284,51.163,114.284,114.278c0,63.103-51.169,114.272-114.284,114.272    c-63.108,0-114.272-51.169-114.272-114.272C126.451,176.406,177.615,125.243,240.723,125.243z" fill="#ffffff" data-original="#000000" style="" class=""/>
	</g>
</g>
<g xmlns="http://www.w3.org/2000/svg">
</g>
<g xmlns="http://www.w3.org/2000/svg">
</g>
<g xmlns="http://www.w3.org/2000/svg">
</g>
<g xmlns="http://www.w3.org/2000/svg">
</g>
<g xmlns="http://www.w3.org/2000/svg">
</g>
<g xmlns="http://www.w3.org/2000/svg">
</g>
<g xmlns="http://www.w3.org/2000/svg">
</g>
<g xmlns="http://www.w3.org/2000/svg">
</g>
<g xmlns="http://www.w3.org/2000/svg">
</g>
<g xmlns="http://www.w3.org/2000/svg">
</g>
<g xmlns="http://www.w3.org/2000/svg">
</g>
<g xmlns="http://www.w3.org/2000/svg">
</g>
<g xmlns="http://www.w3.org/2000/svg">
</g>
<g xmlns="http://www.w3.org/2000/svg">
</g>
<g xmlns="http://www.w3.org/2000/svg">
</g>
</g></svg>
