<?xml version="1.0" encoding="UTF-8"?>
<svg width="208px" height="184px" viewBox="0 0 208 184" version="1.1" xmlns="http://www.w3.org/2000/svg" xmlns:xlink="http://www.w3.org/1999/xlink">
    <!-- Generator: Sketch 51.2 (57519) - http://www.bohemiancoding.com/sketch -->
    <title>apidestegi</title>
    <desc>Created with Sketch.</desc>
    <defs></defs>
    <g id="Main" stroke="none" stroke-width="1" fill="none" fill-rule="evenodd">
        <g id="Large-Devices:-Desktops---12-col" transform="translate(-610.000000, -937.000000)" fill-rule="nonzero">
            <g id="apidestegi" transform="translate(610.960000, 937.000000)">
                <g id="faded" fill="#FA9000">
                    <path d="M150,117.956021 L150,140.970241 C150,142.35664 150.92,143.558185 152.3,143.9587 L172.233333,149.288633 C172.724,149.442678 173.276,149.442678 173.766667,149.288633 L193.7,143.9587 C195.08,143.558185 196,142.35664 196,140.970241 L196,117.956021 C196,116.569623 195.08,115.368077 193.7,114.967562 L173.766667,109.60682 C173.276,109.514393 172.724,109.514393 172.233333,109.60682 L152.3,114.967562 C150.92,115.368077 150,116.569623 150,117.956021 Z M171.466667,145.961276 L153.066667,141.062667 L153.066667,120.205068 L171.466667,125.165295 L171.466667,145.961276 Z M153.066667,117.124182 L160.733333,115.059988 L180.666667,120.389921 L173,122.454115 L153.066667,117.124182 Z M192.933333,141.062667 L174.533333,145.961276 L174.533333,125.165295 L180.666667,123.470808 L180.666667,130.98817 L186.8,129.3553 L186.8,121.837938 L192.933333,120.205068 L192.933333,141.062667 Z M186.8,118.757052 L166.866667,113.427119 L173,111.794249 L192.933333,117.124182 L186.8,118.757052 Z" id="4"></path>
                    <path d="M0,95.5585974 L0,114.570344 C0,115.71563 0.76,116.708211 1.9,117.039071 L18.3666667,121.44206 C18.772,121.569313 19.228,121.569313 19.6333333,121.44206 L36.1,117.039071 C37.24,116.708211 38,115.71563 38,114.570344 L38,95.5585974 C38,94.4133114 37.24,93.4207303 36.1,93.0898699 L19.6333333,88.661431 C19.228,88.5850786 18.772,88.5850786 18.3666667,88.661431 L1.9,93.0898699 C0.76,93.4207303 0,94.4133114 0,95.5585974 Z M17.7333333,118.693373 L2.53333333,114.646696 L2.53333333,97.4165057 L17.7333333,101.514084 L17.7333333,118.693373 Z M2.53333333,94.8714258 L8.8666667,93.1662223 L25.3333333,97.5692105 L19,99.274414 L2.53333333,94.8714258 Z M35.4666667,114.646696 L20.2666667,118.693373 L20.2666667,101.514084 L25.3333333,100.11429 L25.3333333,106.324285 L30.4,104.975393 L30.4,98.765398 L35.4666667,97.4165057 L35.4666667,114.646696 Z M30.4,96.2203181 L13.9333333,91.81733 L19,90.4684377 L35.4666667,94.8714258 L30.4,96.2203181 Z" id="3"></path>
                    <path d="M40,130.77301 L40,153.28692 C40,154.64318 40.9,155.818605 42.25,156.210413 L61.75,161.424478 C62.23,161.575174 62.77,161.575174 63.25,161.424478 L82.75,156.210413 C84.1,155.818605 85,154.64318 85,153.28692 L85,130.77301 C85,129.41675 84.1,128.241325 82.75,127.849517 L63.25,122.605313 C62.77,122.514896 62.23,122.514896 61.75,122.605313 L42.25,127.849517 C40.9,128.241325 40,129.41675 40,130.77301 Z M61,158.169455 L43,153.377338 L43,132.973165 L61,137.82556 L61,158.169455 Z M43,129.959254 L50.5,127.939934 L70,133.153999 L62.5,135.173319 L43,129.959254 Z M82,153.377338 L64,158.169455 L64,137.82556 L70,136.16791 L70,143.521851 L76,141.924478 L76,134.570537 L82,132.973165 L82,153.377338 Z M76,131.556627 L56.5,126.342562 L62.5,124.745189 L82,129.959254 L76,131.556627 Z" id="3"></path>
                    <path d="M148,6.02784003 L148,21.0371136 C148,21.9412867 148.6,22.7249034 149.5,22.986109 L162.5,26.4621522 C162.82,26.5626159 163.18,26.5626159 163.5,26.4621522 L176.5,22.986109 C177.4,22.7249034 178,21.9412867 178,21.0371136 L178,6.02784003 C178,5.12366692 177.4,4.34005023 176.5,4.07884467 L163.5,0.582708655 C163.18,0.522430448 162.82,0.522430448 162.5,0.582708655 L149.5,4.07884467 C148.6,4.34005023 148,5.12366692 148,6.02784003 Z M162,24.2921368 L150,21.0973918 L150,7.49460974 L162,10.7295402 L162,24.2921368 Z M150,5.48533617 L155,4.13912287 L168,7.61516615 L163,8.96137944 L150,5.48533617 Z M176,21.0973918 L164,24.2921368 L164,10.7295402 L168,9.62443972 L168,14.5270672 L172,13.4621522 L172,8.55952473 L176,7.49460974 L176,21.0973918 Z M172,6.55025116 L159,3.07420788 L163,2.00929289 L176,5.48533617 L172,6.55025116 Z" id="2"></path>
                    <path d="M117,163.02784 L117,178.037114 C117,178.941287 117.6,179.724903 118.5,179.986109 L131.5,183.462152 C131.82,183.562616 132.18,183.562616 132.5,183.462152 L145.5,179.986109 C146.4,179.724903 147,178.941287 147,178.037114 L147,163.02784 C147,162.123667 146.4,161.34005 145.5,161.078845 L132.5,157.582709 C132.18,157.52243 131.82,157.52243 131.5,157.582709 L118.5,161.078845 C117.6,161.34005 117,162.123667 117,163.02784 Z M131,181.292137 L119,178.097392 L119,164.49461 L131,167.72954 L131,181.292137 Z M119,162.485336 L124,161.139123 L137,164.615166 L132,165.961379 L119,162.485336 Z M145,178.097392 L133,181.292137 L133,167.72954 L137,166.62444 L137,171.527067 L141,170.462152 L141,165.559525 L145,164.49461 L145,178.097392 Z M141,163.550251 L128,160.074208 L132,159.009293 L145,162.485336 L141,163.550251 Z" id="2"></path>
                    <path d="M1,162.02784 L1,177.037114 C1,177.941287 1.6,178.724903 2.5,178.986109 L15.5,182.462152 C15.82,182.562616 16.18,182.562616 16.5,182.462152 L29.5,178.986109 C30.4,178.724903 31,177.941287 31,177.037114 L31,162.02784 C31,161.123667 30.4,160.34005 29.5,160.078845 L16.5,156.582709 C16.18,156.52243 15.82,156.52243 15.5,156.582709 L2.5,160.078845 C1.6,160.34005 1,161.123667 1,162.02784 Z M15,180.292137 L3,177.097392 L3,163.49461 L15,166.72954 L15,180.292137 Z M3,161.485336 L8,160.139123 L21,163.615166 L16,164.961379 L3,161.485336 Z M29,177.097392 L17,180.292137 L17,166.72954 L21,165.62444 L21,170.527067 L25,169.462152 L25,164.559525 L29,163.49461 L29,177.097392 Z M25,162.550251 L12,159.074208 L16,158.009293 L29,161.485336 L25,162.550251 Z" id="2"></path>
                    <path d="M3,20.02784 L3,35.0371136 C3,35.9412867 3.6,36.7249034 4.5,36.986109 L17.5,40.4621522 C17.82,40.5626159 18.18,40.5626159 18.5,40.4621522 L31.5,36.986109 C32.4,36.7249034 33,35.9412867 33,35.0371136 L33,20.02784 C33,19.1236669 32.4,18.3400502 31.5,18.0788447 L18.5,14.5827087 C18.18,14.5224304 17.82,14.5224304 17.5,14.5827087 L4.5,18.0788447 C3.6,18.3400502 3,19.1236669 3,20.02784 Z M17,38.2921368 L5,35.0973918 L5,21.4946097 L17,24.7295402 L17,38.2921368 Z M5,19.4853362 L10,18.1391229 L23,21.6151662 L18,22.9613794 L5,19.4853362 Z M31,35.0973918 L19,38.2921368 L19,24.7295402 L23,23.6244397 L23,28.5270672 L27,27.4621522 L27,22.5595247 L31,21.4946097 L31,35.0973918 Z M27,20.5502512 L14,17.0742079 L18,16.0092929 L31,19.4853362 L27,20.5502512 Z" id="2"></path>
                    <path d="M64,8.28267002 L64,15.7873068 C64,16.2393934 64.3,16.6312017 64.75,16.7618045 L71.25,18.4998261 C71.41,18.550058 71.59,18.550058 71.75,18.4998261 L78.25,16.7618045 C78.7,16.6312017 79,16.2393934 79,15.7873068 L79,8.28267002 C79,7.83058346 78.7,7.43877512 78.25,7.30817233 L71.75,5.56010433 C71.59,5.52996522 71.41,5.52996522 71.25,5.56010433 L64.75,7.30817233 C64.3,7.43877512 64,7.83058346 64,8.28267002 Z M71,17.4148184 L65,15.8174459 L65,9.01605487 L71,10.6335201 L71,17.4148184 Z M65,8.01141808 L67.5,7.33831144 L74,9.07633308 L71.5,9.74943972 L65,8.01141808 Z M78,15.8174459 L72,17.4148184 L72,10.6335201 L74,10.0809699 L74,12.5322836 L76,11.9998261 L76,9.54851236 L78,9.01605487 L78,15.8174459 Z M76,8.54387558 L69.5,6.80585394 L71.5,6.27339645 L78,8.01141808 L76,8.54387558 Z" id="1"></path>
                    <path d="M192,60.28267 L192,67.7873068 C192,68.2393934 192.3,68.6312017 192.75,68.7618045 L199.25,70.4998261 C199.41,70.550058 199.59,70.550058 199.75,70.4998261 L206.25,68.7618045 C206.7,68.6312017 207,68.2393934 207,67.7873068 L207,60.28267 C207,59.8305835 206.7,59.4387751 206.25,59.3081723 L199.75,57.5601043 C199.59,57.5299652 199.41,57.5299652 199.25,57.5601043 L192.75,59.3081723 C192.3,59.4387751 192,59.8305835 192,60.28267 Z M199,69.4148184 L193,67.8174459 L193,61.0160549 L199,62.6335201 L199,69.4148184 Z M193,60.0114181 L195.5,59.3383114 L202,61.0763331 L199.5,61.7494397 L193,60.0114181 Z M206,67.8174459 L200,69.4148184 L200,62.6335201 L202,62.0809699 L202,64.5322836 L204,63.9998261 L204,61.5485124 L206,61.0160549 L206,67.8174459 Z M204,60.5438756 L197.5,58.8058539 L199.5,58.2733964 L206,60.0114181 L204,60.5438756 Z" id="1"></path>
                </g>
                <g id="Main" transform="translate(27.000000, 27.000000)" stroke="#FA9000">
                    <path d="M6.9388939e-18,106.390355 C6.9388939e-18,108.045842 1.2891432,109.731638 2.89805954,110.160666 L72.5,128.720496 C74.1,129.220496 75.9,129.220496 77.5,128.720496 L147.113175,108.610503 C148.707524,108.149924 150,106.439705 150,104.770351 L150,25.4526183 C150,22.6861825 147.83628,19.8400963 145.179975,19.099271 L77.8941336,0.333705183 C76.2957477,-0.112073804 73.6982346,-0.110395518 72.1058664,0.333705156 L4.82002451,19.0992703 C2.15799848,19.8416913 6.9388939e-18,22.6866634 6.9388939e-18,25.448246 L6.9388939e-18,106.390355 Z" id="main" fill="#FCBE26"></path>
                    <path d="M75,129.5 L75,44" id="Line" fill="#FFFFFF"></path>
                    <path d="M113,61.0046291 L113,34" id="Line" fill="#FFFFFF"></path>
                    <path d="M74,44 L2,24" id="Line" fill="#FFFFFF"></path>
                    <path d="M114,33 L39,11" id="Line" fill="#FFFFFF"></path>
                    <path d="M75,44 L149,23" id="Line" fill="#FFFFFF"></path>
                    <polygon id="Rectangle-6" fill="#FFFFFF" transform="translate(37.000000, 67.223145) scale(-1, 1) translate(-37.000000, -67.223145) " points="53 54.4462891 53 70.4462891 21 80 21 64"></polygon>
                </g>
            </g>
        </g>
    </g>
</svg>